<?xml version="1.0" encoding="iso-8859-1"?>
<!-- Uploaded to: SVG Repo, www.svgrepo.com, Generator: SVG Repo Mixer Tools -->
<svg height="800px" width="800px" version="1.1" id="Layer_1" xmlns="http://www.w3.org/2000/svg" xmlns:xlink="http://www.w3.org/1999/xlink" 
	 viewBox="0 0 512 512" xml:space="preserve">
<path style="fill:#F2F2F4;" d="M380.256,67.368C380.256,30.131,351.799,0,316.631,0c-25.45,0-35.181,13.474-60.632,13.474
	S220.818,0,195.368,0c-35.168,0-63.625,30.131-63.625,67.368v40.421h248.515L380.256,67.368z"/>
<path style="fill:#DFDFE1;" d="M255.999,107.789h124.257V67.368C380.256,30.131,351.799,0,316.631,0
	c-25.45,0-35.181,13.474-60.632,13.474L255.999,107.789L255.999,107.789z"/>
<path style="fill:#FFEA8A;" d="M181.894,512c0-211.267-50.152-206.417-50.152-417.684h248.515
	c0,211.267-50.152,206.417-50.152,417.684H181.894z"/>
<path style="fill:#FFDB2D;" d="M255.999,94.316V512h74.105c0-211.267,50.152-206.417,50.152-417.684H255.999z"/>
</svg>