<?xml version="1.0" encoding="iso-8859-1"?>

<!DOCTYPE svg PUBLIC "-//W3C//DTD SVG 1.1//EN" "http://www.w3.org/Graphics/SVG/1.1/DTD/svg11.dtd">
<!-- Uploaded to: SVG Repo, www.svgrepo.com, Generator: SVG Repo Mixer Tools -->
<svg height="800px" width="800px" version="1.1" id="_x34_" xmlns="http://www.w3.org/2000/svg" xmlns:xlink="http://www.w3.org/1999/xlink" 
	 viewBox="0 0 512 512"  xml:space="preserve">
<g>
	<path style="fill:#7DB78C;" d="M77.664,125.71c0.054,0.054,0.108,0.162,0.27,0.379c-0.108-0.108-0.162-0.162-0.216-0.216
		c0-0.054-0.054-0.054-0.054-0.054C77.664,125.764,77.664,125.71,77.664,125.71z"/>
	<path style="fill:#73BD53;" d="M83.233,129.207c-0.318-0.302-0.236-0.196,0.182,0.245
		C83.115,128.924,83.036,128.816,83.233,129.207z"/>
	<path style="fill:#73BD53;" d="M56.299,361.565c-0.295,0.033-0.204,0.034,0.209,0.004
		C56.096,361.525,56.004,361.523,56.299,361.565z"/>
	<path style="fill:#6CB64C;" d="M76.135,131.757c-0.319-0.296-0.238-0.192,0.183,0.241C76.016,131.48,75.937,131.373,76.135,131.757
		z"/>
	<path style="fill:#6CB64C;" d="M54.542,395.228c-0.286,0.086-0.195,0.07,0.207-0.034C54.334,395.226,54.243,395.241,54.542,395.228
		z"/>
	<g>
		<path style="fill:#7DB78C;" d="M255.537,0.658c-0.108-0.703-0.108-0.865,0-0.378C255.645-0.207,255.645-0.045,255.537,0.658z"/>
		<path style="fill:#73BD53;" d="M256,223.848c-0.106-0.529-0.103-0.364,0,0.374C256.103,223.484,256.106,223.319,256,223.848z"/>
		<path style="fill:#73BD53;" d="M255.994,223.875c0.197-0.391,0.119-0.283-0.182,0.245
			C256.23,223.679,256.312,223.573,255.994,223.875z"/>
		<path style="fill:#73BD53;" d="M256.014,223.887c0.337-0.222,0.226-0.167-0.255,0.123
			C256.285,223.816,256.398,223.764,256.014,223.887z"/>
		<path style="fill:#73BD53;" d="M256.018,223.882c0.294-0.042,0.203-0.04-0.209,0.004
			C256.222,223.916,256.313,223.915,256.018,223.882z"/>
		<path style="fill:#6CB64C;" d="M256,223.848c-0.106-0.519-0.104-0.358,0,0.367C256.104,223.491,256.106,223.329,256,223.848z"/>
		<path style="fill:#6CB64C;" d="M255.994,223.875c0.198-0.384,0.119-0.278-0.183,0.241
			C256.232,223.683,256.313,223.578,255.994,223.875z"/>
		<path style="fill:#6CB64C;" d="M256.014,223.887c0.339-0.218,0.227-0.164-0.257,0.12
			C256.287,223.817,256.4,223.765,256.014,223.887z"/>
		<g>
			<g>
				<g>
					<g>
						<g>
							<path style="fill:#6CB64C;" d="M255.537,0.658c-0.108-0.703-0.108-0.865,0-0.378C255.645-0.207,255.645-0.045,255.537,0.658z
								"/>
							<path style="fill:#6CB64C;" d="M297.329,193.129c0,10.597-0.433,20.977-1.244,31.033l-0.054,0.379
								c-0.216,2.703-0.432,5.298-0.703,7.947c-0.757,7.893-1.784,15.517-2.919,22.923c-0.486,2.811-0.919,5.623-1.46,8.38
								c-0.162,1.081-0.378,2.162-0.595,3.244c-0.324,1.73-0.649,3.514-1.027,5.19c-1.135,5.893-2.379,11.516-3.73,16.922
								c-0.595,2.379-1.189,4.65-1.838,6.92c-0.487,1.892-0.973,3.73-1.514,5.569c-5.947,20.977-12.705,37.196-18.274,46.657
								c-2.055,3.569-3.947,6.218-5.569,7.732c-0.541,0.486-1.081,0.919-1.514,1.136c-0.324,0.216-0.595,0.324-0.865,0.324
								c-0.162,0.108-0.324,0.108-0.487,0.108c-0.108,0-0.216,0-0.324-0.108c0,0,0,0-0.054,0c-1.352-0.162-3.082-1.784-5.082-4.595
								c-0.595-0.811-1.189-1.676-1.784-2.649c-2.595-4.055-5.461-9.732-8.434-16.815c0-0.053-0.054-0.053-0.054-0.053
								c-3.623-8.65-7.407-19.355-10.975-31.736c-0.649-2.271-1.298-4.65-1.892-7.029c-2.054-7.677-3.947-15.949-5.677-24.654
								c-0.162-0.973-0.324-1.946-0.541-2.919c-0.216-1.136-0.378-2.271-0.649-3.406c-0.379-2.27-0.757-4.595-1.135-6.921
								c-1.027-6.487-1.947-13.191-2.703-20.058c-0.162-1.406-0.27-2.757-0.433-4.163c-0.27-2.649-0.541-5.352-0.757-8.11
								c-0.811-10.11-1.243-20.545-1.243-31.25c0-4.163,0.108-8.218,0.27-12.273c0.216-4.271,0.486-8.488,0.865-12.597
								c0.919-10.11,2.325-19.896,4.055-29.303c0.541-3.081,1.135-6.109,1.784-9.083c1.784-8.543,3.785-16.761,5.947-24.546
								c1.352-4.811,2.703-9.461,4.055-13.949c1.893-6.272,3.839-12.219,5.677-17.787c0.973-3.081,2-6.055,2.919-8.867
								c1.352-3.893,2.595-7.569,3.676-10.975c1.243-3.784,2.325-7.19,3.19-10.272c3.514-12.327,6.217-25.357,7.785-33.899
								c0.811-4.38,1.352-7.623,1.514-8.921c0.108,0.649,0.27,1.73,0.487,3.136c0.054,0.325,0.108,0.649,0.216,1.028
								c0.108,0.432,0.216,0.973,0.27,1.513c0.108,0.704,0.271,1.46,0.433,2.272c0.216,1.243,0.487,2.595,0.757,4.055
								c0.216,1.243,0.486,2.487,0.757,3.838c1.622,7.839,3.784,17.571,6.434,26.978c0.486,1.73,1.027,3.568,1.676,5.515
								c0.27,0.973,0.595,2,0.973,3.027c0.162,0.541,0.324,1.082,0.54,1.676c1.081,3.353,2.271,6.974,3.568,10.813l0.054,0.054
								v0.108c0.973,2.812,1.947,5.839,2.974,8.921c1.838,5.515,3.784,11.462,5.677,17.733v0.054
								c1.352,4.541,2.703,9.137,4.055,13.949c2.109,7.785,4.163,16.003,5.947,24.546v0.162c0.649,2.92,1.243,5.947,1.784,8.92
								c1.73,9.407,3.136,19.193,4.055,29.303c0.162,2.109,0.379,4.163,0.486,6.272c0.108,1.784,0.217,3.622,0.324,5.406
								c0,0.325,0.054,0.595,0.054,0.919C297.221,184.911,297.329,188.966,297.329,193.129z"/>
						</g>
						<g>
							<polygon style="fill:#6CB64C;" points="290.949,263.792 289.381,266.981 290.354,267.035 292.355,267.197 303.762,268.063 
								290.949,288.013 282.245,301.637 281.92,302.124 281.596,298.501 280.569,287.958 280.407,285.904 256.888,34.881 
								260.997,32.069 263.592,57.643 268.08,53.695 270.188,51.858 271.648,64.508 271.702,64.562 271.702,64.671 272.837,74.511 
								274.676,73.591 282.029,69.861 280.352,91.325 280.352,91.379 279.055,107.706 284.407,105.327 293.058,101.489 
								290.354,129.873 290.354,130.036 289.381,140.361 292.085,138.956 292.139,138.956 303.384,133.171 296.193,168.259 
								293.058,183.505 297.058,180.856 309.277,172.746 296.085,224.162 296.031,224.541 293.815,233.137 295.328,232.488 
								309.277,226.649 293.76,258.06 							"/>
							<polygon style="fill:#6CB64C;" points="254.239,34.881 233.64,254.06 230.613,286.444 230.613,286.499 229.586,297.582 
								229.153,302.124 228.829,301.637 217.908,284.498 207.365,268.063 219.584,267.144 220.719,267.035 221.746,266.981 
								220.07,263.629 217.745,258.926 201.85,226.649 209.419,229.839 215.799,232.488 217.313,233.137 215.042,224.378 
								201.85,172.746 214.069,180.856 218.07,183.505 214.934,168.259 207.743,133.171 218.989,138.956 221.746,140.361 
								220.773,129.873 218.07,101.489 226.72,105.327 232.073,107.706 230.775,91.379 229.099,69.861 236.452,73.591 
								238.236,74.511 239.371,64.725 240.885,51.858 243.048,53.75 247.535,57.643 250.13,32.069 							"/>
						</g>
					</g>
					<g>
						<g>
							<g>
								<path style="fill:#6CB64C;" d="M434.256,125.864c0.319-0.296,0.237-0.192-0.183,0.241
									C434.375,125.587,434.454,125.48,434.256,125.864z"/>
								<path style="fill:#6CB64C;" d="M434.059,126.089c-0.811,1.352-3.136,5.568-6.001,11.191
									c-3.082,5.893-6.758,13.354-10.002,20.761c-1.027,2.379-2.162,5.028-3.298,8.002v0.054
									c-1.027,2.595-2.109,5.407-3.244,8.434l-0.054,0.108c-0.865,2.216-1.784,4.541-2.757,6.975c0,0.054-0.054,0.162-0.054,0.216
									h-0.054c-1.676,4.379-3.514,9.029-5.514,13.894c-1.352,3.244-2.811,6.596-4.325,10.057
									c-0.162,0.324-0.324,0.594-0.432,0.919c-2.65,5.948-5.569,12.165-8.813,18.49v0.054c-1.135,2.217-2.325,4.379-3.514,6.65
									c0,0,0,0,0,0.054c-3.73,6.866-7.84,13.894-12.381,20.923c0,0,0,0.054-0.054,0.054c-1.297,2.108-2.703,4.163-4.163,6.271
									c-0.486,0.758-1.027,1.514-1.514,2.271h-0.054c-1.892,2.757-3.893,5.461-5.947,8.164
									c-5.298,6.975-10.759,13.624-16.219,19.896l-0.108,0.108l-0.054,0.054c-0.703,0.81-1.406,1.622-2.163,2.379
									c-0.703,0.865-1.46,1.676-2.217,2.487c0,0.054-0.054,0.108-0.054,0.108c-4.109,4.542-8.218,8.921-12.327,13.03
									c-1.892,1.946-3.839,3.838-5.731,5.676c-0.649,0.649-1.298,1.243-1.947,1.839c-2.703,2.595-5.352,5.082-8.001,7.46
									c-4.812,4.325-9.461,8.272-13.895,11.895c-5.19,4.217-10.11,7.947-14.598,11.191c-0.865,0.65-1.73,1.243-2.595,1.839
									c-0.487,0.324-0.973,0.649-1.46,0.973c-7.839,5.352-14.273,8.975-18.652,10.705c-1.352,0.541-2.487,0.919-3.406,1.082
									c-0.054,0.054-0.162,0.054-0.216,0.054c-1.027,0.216-1.784,0.162-2.217-0.162v-0.054c-0.324-0.216-0.487-0.54-0.595-0.973
									c-0.162-0.432-0.217-1.027-0.217-1.73c0,0,0,0-0.054,0c-0.054-0.973,0-2.163,0.216-3.514
									c0.108-1.243,0.379-2.649,0.649-4.217V349.7c0.054-0.216,0.108-0.432,0.162-0.648c0.487-2.217,1.081-4.704,1.892-7.516
									c2.216-7.785,5.731-17.679,10.651-28.87c3.298-7.677,7.245-16.004,11.84-24.708c0.27-0.487,0.541-1.027,0.811-1.514
									c0.432-0.81,0.865-1.568,1.297-2.378c2.109-3.893,4.325-7.839,6.65-11.841c1.027-1.676,2-3.352,3.028-5.028
									c1.081-1.783,2.217-3.568,3.406-5.406c1.19-1.892,2.379-3.784,3.622-5.676l0.108-0.162
									c4.542-6.921,9.461-13.895,14.76-20.87c2.055-2.703,4.163-5.352,6.272-7.947c2.271-2.703,4.488-5.298,6.758-7.839
									l0.054-0.054c5.514-6.272,11.245-12.111,16.922-17.517c1.838-1.785,3.622-3.461,5.46-5.137l0.054-0.054
									c5.299-4.92,10.543-9.461,15.625-13.678c3.19-2.649,6.272-5.137,9.299-7.516h0.054c4.217-3.351,8.218-6.433,12.057-9.299
									c2.108-1.622,4.163-3.136,6.109-4.65l0.108-0.053c2.649-2.001,5.19-3.893,7.461-5.569v-0.054
									c1.298-0.973,2.487-1.893,3.623-2.811c1.189-0.865,2.271-1.785,3.298-2.595c6.488-5.298,12.975-11.138,17.896-15.787
									C429.733,130.414,432.977,127.17,434.059,126.089z"/>
							</g>
							<g>
								<polygon style="fill:#6CB64C;" points="298.759,334.763 328.188,321.421 320.529,314.774 351.976,296.567 339.917,294.42 
									378.89,261.17 364.258,261.55 395.264,232.777 383.687,231.71 405.168,207.747 394.073,206.036 414.651,182.413 
									407.108,181.691 416.896,165.742 410.241,166.777 421.509,148.956 417.755,149.097 								"/>
								<polygon style="fill:#6CB64C;" points="416.271,147.985 290.949,288.013 283.759,296.068 281.596,298.501 268.674,312.936 
									268.728,312.667 273.216,281.579 280.407,285.904 281.38,286.444 281.974,286.823 282.677,284.066 290.679,252.168 
									292.409,255.411 293.76,258.006 293.76,258.06 295.761,261.791 296.302,262.818 299.383,256.114 299.491,255.953 
									317.603,216.809 320.523,227.136 320.523,227.19 321.496,230.542 327.281,219.296 327.335,219.242 340.689,193.237 
									344.257,201.725 345.122,203.779 349.717,196.589 349.771,196.535 362.369,176.747 365.396,182.857 367.288,186.641 
									374.749,175.341 384.481,160.582 386.806,166.042 387.401,167.394 392.915,161.393 393.023,161.339 400.16,153.608 
									400.484,155.716 400.484,155.77 401.079,160.149 415.298,144.47 								"/>
							</g>
						</g>
						<g>
							<g>
								<path style="fill:#6CB64C;" d="M511.771,243.23c0.386-0.121,0.273-0.07-0.257,0.12
									C511.998,243.066,512.11,243.012,511.771,243.23z"/>
								<path style="fill:#6CB64C;" d="M479.478,253.09c14.271-3.704,29.188-8.721,32.036-9.74
									c-2.599,1.528-15.951,9.731-27.851,18.266c-17.737,12.722-51.506,42.296-97.423,63.769
									c-63.565,29.727-122.366,39.015-124.458,34.752c-2.093-4.263,42.167-43.171,105.733-72.897
									C413.432,265.767,458.205,258.611,479.478,253.09z"/>
							</g>
							<g>
								<polygon style="fill:#6CB64C;" points="306.526,354.03 335.25,352.838 332.783,345.922 365.43,341.828 357.431,336.878 
									403.18,324.174 391.995,320.3 429.542,308.535 421.369,304.494 449.375,293.466 441.884,289.101 469.044,278.061 
									463.731,275.408 478.983,266.791 473.47,265.645 490.76,256.111 487.868,255.148 								"/>
								<polygon style="fill:#6CB64C;" points="294.696,329.93 313.645,308.827 317.621,315.037 341.347,292.768 340.287,301.955 
									379.097,275.114 375.182,286.05 408.102,264.861 406.208,273.61 432.562,259.216 431.353,267.649 457.187,253.908 
									455.976,259.61 472.414,253.408 469.874,258.32 488.321,251.142 487.278,253.945 								"/>
							</g>
						</g>
						<g>
							<g>
								<path style="fill:#6CB64C;" d="M445.577,381.447c0.288,0.079,0.197,0.065-0.207-0.03
									C445.784,381.44,445.876,381.453,445.577,381.447z"/>
								<path style="fill:#6CB64C;" d="M421.62,374.709c10.319,3.348,21.575,6.198,23.75,6.708
									c-2.23-0.126-13.83-0.578-24.672-0.287c-16.16,0.434-49.125,4.288-86.251-1.075c-51.395-7.424-91.458-24.595-90.997-27.805
									c0.461-3.21,43.727-8.344,95.123-0.92C375.699,356.692,406.239,369.719,421.62,374.709z"/>
							</g>
							<g>
								<polygon style="fill:#6CB64C;" points="273.542,365.858 291.738,376.139 293.058,371.285 314.865,381.421 311.967,375.569 
									345.388,385.83 340.084,379.372 368.062,387.035 364.684,381.632 386.478,386.073 383.654,380.746 404.931,384.858 
									402.746,381.331 415.688,382.272 412.759,379.521 427.334,380.721 425.947,379.073 								"/>
								<polygon style="fill:#6CB64C;" points="276.149,347.71 296.498,342.997 296.398,348.027 320.171,344.476 315.744,349.27 
									350.694,348.885 343.788,353.579 372.786,354.146 368.025,358.374 390.183,360.281 385.974,364.592 407.543,366.67 
									404.454,369.435 417.135,372.195 413.551,374.005 427.871,376.979 426.077,378.168 								"/>
							</g>
						</g>
					</g>
					<g>
						<g>
							<g>
								<path style="fill:#6CB64C;" d="M77.934,126.089c-0.108-0.108-0.162-0.162-0.216-0.216c0-0.054-0.054-0.054-0.054-0.054
									c0-0.054,0-0.108,0-0.108C77.717,125.764,77.772,125.872,77.934,126.089z"/>
								<path style="fill:#6CB64C;" d="M256.888,356.188v0.974c-0.054,1.135-0.162,1.946-0.486,2.487
									c-0.108,0.216-0.216,0.432-0.379,0.54l-0.054,0.054c-0.703,0.54-2.325,0.324-4.65-0.54
									c-0.324-0.108-0.703-0.216-1.135-0.379c-2.541-1.027-5.785-2.703-9.623-4.974c-1.406-0.811-2.866-1.73-4.38-2.703
									c-6.65-4.217-14.597-9.948-23.302-17.031c-4.487-3.622-9.137-7.623-13.949-11.949c-2.595-2.379-5.298-4.865-7.948-7.46
									c-0.649-0.595-1.298-1.189-1.946-1.839c-1.946-1.838-3.839-3.73-5.785-5.676l-0.054-0.054
									c-4.055-4.109-8.164-8.434-12.272-12.976c0,0-0.054-0.054-0.054-0.108c-1.514-1.622-3.028-3.298-4.542-4.974
									c-5.461-6.326-10.921-12.976-16.219-19.95c-2.054-2.703-4.055-5.406-5.947-8.164c-2-2.865-3.947-5.676-5.731-8.542
									c-4.596-7.029-8.704-14.057-12.435-20.977c-1.19-2.271-2.325-4.433-3.406-6.651c-3.298-6.379-6.218-12.596-8.867-18.598
									c-1.73-3.73-3.298-7.407-4.704-10.921c-2.054-4.919-3.947-9.57-5.623-13.949c-1.027-2.541-2-5.028-2.865-7.353
									c-1.19-3.028-2.271-5.839-3.298-8.434c-1.19-2.973-2.271-5.623-3.298-8.002c-6.271-14.435-14.381-29.14-16.003-31.952
									c2.271,2.324,14.327,14.164,26.654,24.221c2.054,1.676,4.379,3.46,6.92,5.461c2.325,1.73,4.866,3.622,7.569,5.622
									c1.946,1.46,4.001,3.028,6.163,4.65c3.785,2.865,7.785,5.948,12.002,9.299c3.028,2.379,6.163,4.867,9.354,7.516
									c5.082,4.216,10.272,8.704,15.571,13.57c1.838,1.676,3.676,3.405,5.568,5.244c5.731,5.461,11.408,11.354,17.031,17.625
									c2.216,2.541,4.487,5.19,6.704,7.839c2.109,2.595,4.217,5.244,6.271,7.947c5.299,6.975,10.218,13.949,14.76,20.87
									c1.298,1.946,2.541,3.892,3.73,5.838c1.189,1.784,2.271,3.569,3.352,5.353c0.595,0.919,1.135,1.838,1.676,2.811
									c2.919,4.813,5.623,9.57,8.163,14.22c0.433,0.756,0.811,1.514,1.19,2.27v0.054h0.054c3.19,5.948,6.055,11.678,8.65,17.192
									c1.406,2.974,2.703,5.839,3.893,8.651c6.704,15.354,10.867,28.222,12.651,36.764c0.054,0.216,0.108,0.378,0.162,0.594v0.054
									c0.324,1.784,0.595,3.407,0.703,4.758C256.834,355.107,256.834,355.648,256.888,356.188z"/>
							</g>
							<g>
								<polygon style="fill:#6CB64C;" points="213.258,334.778 212.879,334.616 183.793,321.424 187.523,318.181 190.983,315.207 
									191.47,314.774 189.037,313.369 160.004,296.555 162.383,296.122 163.14,296.014 170.871,294.663 170.925,294.663 
									172.061,294.446 170.709,293.311 166.33,289.581 133.134,261.197 144.163,261.467 147.731,261.575 138.432,252.925 
									116.752,232.759 125.998,231.947 128.322,231.731 122.591,225.297 106.858,207.726 113.725,206.699 117.942,206.05 
									109.021,195.778 97.343,182.424 103.398,181.829 104.912,181.667 100.533,174.477 95.127,165.718 97.235,166.042 
									101.776,166.799 90.477,148.958 94.261,149.12 197.471,310.179 204.337,320.83 207.689,326.129 								"/>
								<polygon style="fill:#6CB64C;" points="243.318,312.936 239.371,308.503 229.586,297.582 226.936,294.608 217.908,284.498 
									95.721,147.985 96.694,144.47 110.913,160.149 111.508,155.77 111.832,153.608 119.077,161.393 124.646,167.394 
									125.241,166.042 127.511,160.582 137.243,175.341 144.704,186.641 146.596,182.857 149.624,176.747 162.167,196.427 
									166.871,203.779 167.735,201.671 171.304,193.237 184.766,219.296 190.551,230.542 191.47,227.136 194.389,216.756 
									212.501,255.953 215.691,262.818 216.232,261.791 217.745,258.926 218.935,256.709 221.313,252.168 229.423,284.174 
									230.072,286.823 230.613,286.499 230.667,286.499 238.777,281.579 239.209,284.661 243.21,312.342 								"/>
							</g>
						</g>
						<g>
							<g>
								<path style="fill:#6CB64C;" d="M0.229,243.23c-0.387-0.121-0.273-0.07,0.257,0.12C0.002,243.066-0.11,243.012,0.229,243.23z
									"/>
								<path style="fill:#6CB64C;" d="M250.238,360.135c-0.054,0.108-0.108,0.162-0.162,0.216c-0.216,0.108-0.486,0.27-0.757,0.378
									c-1.352,0.433-4.271,0.541-8.38,0.162c-7.244-0.649-18.274-2.541-31.898-5.893c-1.298-0.271-2.649-0.649-4.001-0.973
									c-2.109-0.541-4.326-1.135-6.542-1.73c-1.622-0.486-3.244-0.919-4.92-1.406c-4.65-1.352-9.516-2.866-14.544-4.487
									c-0.811-0.271-1.622-0.541-2.433-0.812c-7.299-2.433-14.922-5.136-22.815-8.217c-1.838-0.703-3.676-1.46-5.568-2.217
									c-7.353-2.974-14.868-6.217-22.437-9.786c-2.865-1.352-5.677-2.703-8.488-4.109h-0.054
									c-2.865-1.513-5.731-3.027-8.542-4.486c-6.866-3.785-13.408-7.624-19.626-11.517c-1.946-1.189-3.839-2.379-5.731-3.622
									c-5.677-3.677-11.083-7.299-16.112-10.867c-3.081-2.217-6.109-4.38-8.92-6.487c-4.001-2.92-7.677-5.731-11.137-8.326
									c-1.946-1.514-3.785-2.974-5.569-4.326c-2.433-1.892-4.704-3.622-6.812-5.244c-2.325-1.73-4.487-3.352-6.433-4.758
									c-11.894-8.542-25.248-16.76-27.898-18.274c2.866,1.027,17.787,6.055,32.06,9.732c2.379,0.594,4.974,1.243,7.894,1.892
									c2.595,0.595,5.406,1.243,8.434,1.946c2.216,0.486,4.541,0.973,6.92,1.568c4.271,0.973,8.867,2,13.679,3.19
									c3.46,0.865,7.028,1.784,10.759,2.757c5.893,1.567,12.11,3.298,18.49,5.298c2.217,0.703,4.433,1.406,6.704,2.163
									c6.974,2.27,14.165,4.865,21.464,7.785c2.974,1.189,6.001,2.433,9.029,3.73c2.866,1.244,5.731,2.487,8.597,3.839
									c6.163,2.866,12.11,5.839,17.895,8.867c1.352,0.703,2.649,1.406,3.947,2.054c1.784,0.974,3.568,1.946,5.299,2.919
									c4.001,2.163,7.839,4.38,11.57,6.542l0.054,0.054c3.136,1.838,6.218,3.677,9.191,5.514c0.757,0.487,1.514,0.974,2.216,1.406
									c3.352,2.109,6.596,4.217,9.678,6.218c4.541,3.081,8.813,6.001,12.759,8.866l0.054,0.054
									c9.732,6.975,17.571,13.3,23.194,18.436c1.352,1.243,2.595,2.379,3.676,3.46c0.216,0.216,0.433,0.378,0.595,0.595
									c1.298,1.297,2.378,2.433,3.19,3.46c1.352,1.568,2.163,2.811,2.379,3.622C250.347,359.648,250.347,359.919,250.238,360.135z
									"/>
							</g>
							<g>
								<polygon style="fill:#6CB64C;" points="205.473,354.026 205.04,354.026 186.928,353.269 184.333,353.161 176.764,352.836 
									179.035,346.403 179.197,345.916 176.602,345.591 146.596,341.807 153.787,337.374 154.544,336.887 148.218,335.157 
									108.805,324.182 117.239,321.262 117.293,321.262 119.996,320.289 108.697,316.776 82.475,308.557 89.071,305.259 
									90.639,304.503 83.34,301.637 62.633,293.473 67.229,290.77 70.094,289.094 58.308,284.283 42.954,278.064 47.171,275.956 
									48.252,275.415 41.602,271.631 33.006,266.766 34.79,266.387 38.521,265.63 21.22,256.114 24.139,255.141 201.526,351.863 
									201.85,352.025 								"/>
								<polygon style="fill:#6CB64C;" points="217.313,329.913 207.689,326.129 198.931,322.668 187.523,318.181 24.734,253.952 
									23.653,251.14 42.143,258.331 40.413,254.979 39.602,253.411 48.847,256.925 56.038,259.629 55.767,258.493 54.794,253.897 
									69.446,261.683 80.637,267.63 80.205,264.44 79.448,259.196 98.695,269.739 105.777,273.631 105.399,271.901 
									103.885,264.873 126.862,279.686 136.811,286.066 135.891,283.417 132.918,275.091 163.14,296.014 166.33,298.177 
									171.736,301.961 171.628,301.096 170.871,294.663 170.871,294.554 170.709,293.311 170.655,292.77 192.443,313.206 
									194.389,315.045 194.66,314.612 197.471,310.179 198.336,308.827 217.097,329.696 217.151,329.75 								"/>
							</g>
						</g>
						<g>
							<g>
								<path style="fill:#6CB64C;" d="M56.151,389.335c-0.286,0.086-0.195,0.07,0.207-0.035
									C55.944,389.333,55.853,389.348,56.151,389.335z"/>
								<path style="fill:#6CB64C;" d="M257.483,355.161c0.054,0.271-0.162,0.595-0.595,1.027c-0.216,0.162-0.486,0.432-0.865,0.649
									c-0.216,0.216-0.487,0.433-0.811,0.649c0,0,0,0-0.054,0c-0.432,0.324-0.973,0.595-1.514,0.974
									c-0.703,0.378-1.46,0.81-2.325,1.243c-0.378,0.216-0.811,0.432-1.244,0.649c-0.216,0.108-0.486,0.27-0.757,0.378
									c-2.271,1.135-5.028,2.379-8.164,3.677c-3.947,1.676-8.542,3.46-13.733,5.298c-5.677,2-12.002,4.055-18.923,6.055
									c-0.54,0.162-1.135,0.325-1.73,0.487h-0.054c-5.515,1.568-11.3,3.081-17.409,4.541c-1.622,0.379-3.298,0.758-4.974,1.082
									c-5.515,1.243-11.246,2.379-17.138,3.352c-2.325,0.379-4.596,0.757-6.866,1.081c-2.325,0.325-4.65,0.595-6.974,0.865h-0.108
									c-5.785,0.703-11.408,1.136-16.868,1.406c-1.676,0.162-3.352,0.216-4.974,0.27c-5.028,0.216-9.84,0.325-14.381,0.325
									c-2.757,0-5.461,0-8.002-0.054c-3.73-0.054-7.191-0.162-10.489-0.216c-1.784-0.054-3.46-0.108-5.082-0.216
									c-2.271-0.054-4.433-0.108-6.434-0.162c-2.217-0.054-4.217-0.108-6.001-0.108c-1.514,0-3.082,0-4.596,0.054
									c-9.353,0.108-18.112,0.649-20.058,0.811c1.622-0.433,8.434-2.325,16.111-4.758c2.433-0.757,4.974-1.621,7.461-2.487
									c1.676-0.595,3.568-1.298,5.623-2.109c1.838-0.703,3.839-1.46,6.001-2.271c1.514-0.649,3.136-1.243,4.812-1.892
									c3.028-1.189,6.272-2.379,9.732-3.622c2.433-0.919,4.974-1.839,7.623-2.703c4.271-1.514,8.813-3.028,13.57-4.434
									c1.622-0.54,3.244-1.027,4.92-1.46c5.136-1.514,10.543-2.92,16.111-4.217c2.325-0.486,4.704-1.027,7.137-1.514h0.054
									c2.271-0.432,4.542-0.865,6.866-1.243c6.001-1.027,11.894-1.838,17.625-2.541c1.568-0.217,3.135-0.378,4.704-0.541
									c0.757-0.108,1.514-0.162,2.216-0.216c4.001-0.433,7.839-0.758,11.57-0.974c1.135-0.108,2.271-0.162,3.352-0.271
									c0.216,0,0.433,0,0.595-0.054c0.703,0,1.352-0.053,2-0.053c7.245-0.433,14.003-0.595,20.112-0.541
									c4.217,0,8.11,0.108,11.624,0.271c1.514,0.108,2.92,0.162,4.271,0.271c1.081,0.053,2.054,0.162,3.028,0.216
									c0.378,0.054,0.757,0.054,1.135,0.108c2.054,0.216,3.838,0.432,5.46,0.649c2.271,0.325,4.055,0.703,5.299,1.081
									c0.216,0.054,0.432,0.108,0.649,0.162c0.27,0.108,0.486,0.216,0.703,0.379C257.159,354.674,257.429,354.945,257.483,355.161
									z"/>
							</g>
							<g>
								<polygon style="fill:#6CB64C;" points="227.749,369.508 209.813,380.235 208.373,375.415 186.822,386.085 189.575,380.164 
									156.418,391.246 161.561,384.659 133.78,393.01 137.024,387.525 115.346,392.503 118.038,387.108 96.869,391.743 
									98.966,388.163 86.052,389.423 88.911,386.6 74.37,388.159 75.716,386.478 								"/>
								<polygon style="fill:#6CB64C;" points="224.72,351.431 209.041,354.999 75.555,385.6 73.717,384.41 87.99,381.112 
									85.557,379.923 84.368,379.382 91.558,377.652 96.965,376.3 96.37,375.76 93.829,373.651 106.101,372.138 115.347,371.002 
									113.725,369.435 111.022,366.785 127.295,365.001 133.134,364.352 132.215,363.541 128.268,360.243 148.326,359.324 
									157.247,358.946 155.517,357.81 155.463,357.81 150.218,354.458 180.008,354.026 185.145,353.971 184.712,353.485 
									184.333,353.161 180.603,349.268 193.579,350.89 201.526,351.863 202.445,351.971 204.445,352.242 204.445,351.918 
									204.229,347.213 224.558,351.376 								"/>
							</g>
						</g>
					</g>
					<path style="fill:#6CB64C;" d="M259.848,107.77c0,0-0.159,5.307-0.437,14.593c-0.232,9.291-0.563,22.563-0.961,38.489
						c-0.167,7.963-0.348,16.589-0.54,25.714c-0.106,9.124-0.218,18.745-0.334,28.699c-0.063,9.953-0.252,20.237-0.205,30.687
						c-0.073,10.45-0.134,21.064-0.02,31.679c0.016,5.307,0.033,10.615,0.048,15.901c0.061,5.286,0.122,10.552,0.182,15.776
						c0.161,10.447,0.318,20.729,0.471,30.679c0.212,9.949,0.418,19.566,0.612,28.687c0.101,4.56,0.199,8.996,0.294,13.287
						c0.16,4.29,0.315,8.435,0.464,12.414c0.156,3.979,0.306,7.793,0.449,11.419c0.096,3.628,0.187,7.069,0.272,10.303
						c0.284,6.466,0.532,12.103,0.736,16.746c0.322,9.288,0.507,14.596,0.507,14.596l-12.893,0.32c0,0-0.631-5.311-1.735-14.603
						c-0.509-4.648-1.127-10.292-1.837-16.766c-0.298-3.239-0.615-6.684-0.949-10.317c-0.275-3.634-0.565-7.454-0.868-11.442
						c-0.295-3.987-0.601-8.141-0.919-12.44c-0.253-4.3-0.513-8.745-0.781-13.315c-0.267-4.57-0.542-9.265-0.822-14.063
						c-0.167-4.799-0.337-9.703-0.511-14.69c-0.16-4.987-0.322-10.056-0.487-15.189c-0.182-5.132-0.141-10.327-0.224-15.563
						c-0.114-10.473-0.267-21.112-0.081-31.75c0.059-10.639,0.291-21.276,0.534-31.747c0.224-10.471,0.763-20.773,1.119-30.743
						c0.433-9.97,1.088-19.605,1.662-28.741c0.657-9.135,1.278-17.771,1.851-25.744c0.549-7.972,1.345-15.275,1.972-21.749
						c0.684-6.473,1.28-12.116,1.772-16.763c0.503-4.647,1.013-8.297,1.331-10.789c0.332-2.488,0.51-3.815,0.51-3.815
						L259.848,107.77z"/>
				</g>
			</g>
			<path style="opacity:0.06;fill:#040000;" d="M477.256,266.387l-0.054,0.054l1.784,0.325l-8.596,4.865l-0.054,0.054
				c-1.73,1.352-3.568,2.757-5.515,4.271l4.217,2.108l-15.354,6.218l-0.054,0.054c-2.866,2.108-5.785,4.216-8.867,6.433l4.596,2.703
				l-20.545,8.11c-0.324,0.217-0.649,0.432-1.027,0.649c-1.568,1.028-3.19,2-4.811,3.027l6.542,3.298l-26.059,8.11l-0.054,0.054
				h-0.054c-0.054,0-0.054,0.054-0.108,0.054c-2.757,1.567-5.623,2.973-8.488,4.486l8.434,2.92l-39.089,10.867
				c-0.054,0.054-0.162,0.054-0.216,0.054c-1.892,0.757-3.785,1.568-5.677,2.271l7.245,4.433l-30.006,3.784h-0.054
				c-0.865,0.271-1.622,0.541-2.433,0.812l0.973,2.649l16.76-0.162l-5.19,3.514c2.379,0.433,4.704,0.866,7.083,1.352h0.108
				l20.112,0.379l-3.838,3.406c1.622,0.432,3.244,0.865,4.866,1.298c0.054,0.054,0.054,0.054,0.108,0.054l16.219,1.406l-2.595,2.649
				c1.352,0.432,2.65,0.865,3.947,1.298c1.243,0.432,2.487,0.811,3.73,1.243h0.162l12.165,1.19l-2.487,2.216
				c1.676,0.595,3.298,1.189,4.811,1.73h0.054l7.191,1.568l-1.135,0.594c2,0.704,3.947,1.352,5.623,1.947
				c10.326,3.297,21.572,6.163,23.734,6.704c-2.217-0.162-13.841-0.595-24.654-0.325c-1.784,0.054-3.784,0.162-5.947,0.271
				l0.919,0.865l-7.137-0.486h-0.162c-1.676,0.054-3.406,0.162-5.19,0.271l1.73,2.811l-12.002-2.324h-0.054
				c-1.298,0.054-2.649,0.108-3.947,0.162c-1.405,0.054-2.757,0.054-4.163,0.108l1.73,3.298l-15.841-3.244l-0.162-0.054h-0.216
				c-1.622,0-3.244-0.054-4.92-0.108l2.703,4.38l-19.517-5.353c-0.973-0.108-2-0.216-3.028-0.324
				c-1.352-0.108-2.757-0.271-4.109-0.433l4.001,4.866l-28.6-8.758c-0.324-0.054-0.649-0.108-0.919-0.216
				c-1.244-0.216-2.433-0.486-3.623-0.702l2.595,5.298l-20.112-9.353c-0.054,0-0.054,0-0.108-0.054
				c-0.541-0.108-1.135-0.271-1.676-0.433l-1.189,4.542l-17.95-10.111l-0.054-0.054h-0.054c-5.785-1.892-10.921-3.73-15.192-5.461
				c0.054,2.703,0.108,5.515,0.162,8.164c0.108,4.542,0.216,8.975,0.27,13.3c0.162,4.271,0.324,8.434,0.487,12.38
				c0.162,4.001,0.324,7.786,0.432,11.462c0.108,3.622,0.216,7.028,0.271,10.272c0.27,6.488,0.54,12.11,0.757,16.761
				c0.324,9.299,0.487,14.597,0.487,14.597l-5.352,0.108V3.47c0.162,0.811,0.324,1.784,0.486,2.865
				c0.324,1.785,0.703,3.947,1.19,6.326c0.216,1.243,0.486,2.487,0.757,3.838c1.622,7.839,3.784,17.571,6.434,26.978
				c0.486,1.73,1.027,3.568,1.676,5.515c0.27,0.973,0.595,2,0.973,3.027c0.162,0.541,0.324,1.082,0.54,1.676l2.109-1.837
				l1.514,12.704v0.108c0.973,2.812,1.947,5.839,2.974,8.921l7.353-3.731l-1.676,21.464v0.054c1.352,4.541,2.703,9.137,4.055,13.949
				l8.65-3.838l-2.703,28.384v0.162c0.595,2.92,1.19,5.893,1.73,8.92h0.054l11.246-5.785l-7.191,35.088
				c0.162,2.109,0.379,4.163,0.486,6.272c0.108,1.784,0.217,3.622,0.324,5.406c0,0.325,0.054,0.595,0.054,0.919l12.219-8.11
				l-13.192,51.416l-0.054,0.162v0.217c-0.216,2.703-0.432,5.298-0.703,7.947l13.949-5.839l-15.517,31.358v0.054l2,3.73
				c1.19-1.892,2.379-3.784,3.622-5.676l0.108-0.162l18.112-39.144l2.919,10.327c2.271-2.703,4.488-5.298,6.758-7.839l0.054-0.054
				l13.354-26.006l3.568,8.489c1.838-1.785,3.622-3.461,5.46-5.137l0.054-0.054l12.597-19.788l3.028,6.11
				c3.19-2.649,6.272-5.137,9.299-7.516l9.786-14.759l2.325,5.461c2.108-1.622,4.163-3.136,6.109-4.65l7.244-7.785l0.324,2.109
				c1.298-0.973,2.487-1.893,3.623-2.811c1.189-0.919,2.271-1.785,3.298-2.595c6.488-5.298,12.975-11.138,17.896-15.787
				c4.433-4.109,7.677-7.353,8.758-8.434c-0.811,1.352-3.136,5.568-6.001,11.191c-3.082,5.893-6.758,13.354-10.002,20.761
				c-1.027,2.379-2.162,5.028-3.298,8.002v0.054l2.163-0.378l-5.406,8.813l-0.054,0.108l-0.108,0.108
				c0,0.054-0.054,0.054-0.054,0.108c-0.811,2.162-1.676,4.433-2.595,6.758c-0.054,0.054-0.054,0.162-0.108,0.216h0.054l6.001,0.595
				l-11.57,13.3l-0.108,0.108c-1.352,3.244-2.757,6.542-4.217,9.948c-0.162,0.324-0.324,0.594-0.432,0.919l6.866,1.027
				l-15.679,17.464v0.054l-0.108,0.108c-1.135,2.163-2.271,4.38-3.46,6.542h0.054l9.245,0.865l-21.626,20.112
				c0,0,0,0.054-0.054,0.054c-1.297,2.108-2.703,4.163-4.163,6.271c-0.486,0.758-1.027,1.514-1.568,2.271h0.054l11.029-0.27
				l-33.25,28.33l-0.108,0.108l-0.054,0.054c-0.703,0.81-1.406,1.622-2.163,2.379c-0.703,0.81-1.405,1.568-2.217,2.379v0.216
				l7.731,1.352h0.054l30.168-20.923l-2.92,8.272c2.974-1.298,6.001-2.542,8.975-3.731l22.977-14.76l-1.514,7.029
				c2.217-0.757,4.433-1.46,6.596-2.109l0.108-0.054l19.247-10.543l-0.757,5.245c3.73-0.973,7.299-1.892,10.759-2.757l14.651-7.786
				l-0.973,4.596c2.325-0.541,4.65-1.082,6.812-1.568c0.054,0,0.054,0,0.108,0l0.108-0.054l9.137-3.46l-0.811,1.568
				c0.703-0.162,1.406-0.325,2.109-0.486c0.703-0.162,1.405-0.325,2.054-0.487c1.298-0.325,2.595-0.595,3.73-0.919
				c14.273-3.677,29.195-8.705,32.061-9.732c-2.595,1.514-15.949,9.732-27.844,18.274
				C481.69,263.035,479.581,264.656,477.256,266.387z"/>
		</g>
		<path style="fill:#6CB64C;" d="M256.016,223.869c0.299,0.006,0.208-0.007-0.207-0.03
			C256.213,223.934,256.304,223.948,256.016,223.869z"/>
	</g>
</g>
</svg>