<?xml version="1.0" ?>
<!-- Uploaded to: SVG Repo, www.svgrepo.com, Generator: SVG Repo Mixer Tools -->
<svg width="800px" height="800px" viewBox="0 0 24 24" enable-background="new 0 0 24 24" id="Layer_1" version="1.1" xml:space="preserve" xmlns="http://www.w3.org/2000/svg" xmlns:xlink="http://www.w3.org/1999/xlink">
<g>
<path d="M22.5,5H22V1.5C22,1.2236328,21.7763672,1,21.5,1h-19C2.2236328,1,2,1.2236328,2,1.5V5H1.5   C1.2236328,5,1,5.2236328,1,5.5S1.2236328,6,1.5,6H2v15c0,1.1030273,0.8974609,2,2,2h16c1.1025391,0,2-0.8969727,2-2V6h0.5   C22.7763672,6,23,5.7763672,23,5.5S22.7763672,5,22.5,5z" fill="#303C42"/>
<rect fill="#D7D8D6" height="3" width="18" x="3" y="2"/>
<path d="M20,22H4c-0.5517578,0-1-0.4487305-1-1v-9.996582   c4.381897,0.0178833,6.7120972,0.258667,8.9472656,0.4936523C14.2088013,11.7354736,16.5654907,11.9786987,21,11.996582V21   C21,21.5512695,20.5517578,22,20,22z" fill="#FAFAFA"/>
<path d="M21,10.996582c-4.381897-0.0178833-6.7120972-0.258667-8.9472656-0.4936523   C9.7911987,10.2645264,7.4345093,10.0213013,3,10.003418V6h18V10.996582z" fill="#D7D8D6"/>
<rect fill="#FFFFFF" height="3" opacity="0.2" width="1.5" x="3" y="2"/>
<rect height="3" opacity="0.1" width="1.5" x="19.5" y="2"/>
<path d="M19.5,20.9542236C19.5,21.5307007,19.1264648,22,18.666687,22H20c0.5517578,0,1-0.4487305,1-1v-9.003418   c-0.5297852-0.0021362-1.026123-0.0079346-1.5-0.0161133V20.9542236z" opacity="0.1"/>
<path d="M4.5,20.9542236v-9.9346313C4.0267334,11.0112915,3.5297852,11.0055542,3,11.003418V21   c0,0.5512695,0.4482422,1,1,1h1.333313C4.8735352,22,4.5,21.5307007,4.5,20.9542236z" fill="#FFFFFF" opacity="0.2"/>
<path d="M19.5,10.9804077c0.4732666,0.0083008,0.9702148,0.0140381,1.5,0.0161743V6h-1.5V10.9804077z" opacity="0.1"/>
<path d="M3,6v4.003418c0.5297852,0.0021362,1.026123,0.0079346,1.5,0.0161133V6H3z" fill="#FFFFFF" opacity="0.2"/>
<circle cx="4.5" cy="20.5" fill="#303C42" r="0.5"/>
<circle cx="6.5" cy="19.5" fill="#303C42" r="0.5"/>
<circle cx="4.5" cy="17.5" fill="#303C42" r="0.5"/>
<linearGradient gradientUnits="userSpaceOnUse" id="SVGID_1_" x1="-0.1739797" x2="23.9351959" y1="6.0508089" y2="17.2931023">
<stop offset="0" style="stop-color:#FFFFFF;stop-opacity:0.2"/>
<stop offset="1" style="stop-color:#FFFFFF;stop-opacity:0"/>
</linearGradient>
<path d="M22.5,5H22V1.5C22,1.2236328,21.7763672,1,21.5,1h-19C2.2236328,1,2,1.2236328,2,1.5V5H1.5   C1.2236328,5,1,5.2236328,1,5.5S1.2236328,6,1.5,6H2v15c0,1.1030273,0.8974609,2,2,2h16c1.1025391,0,2-0.8969727,2-2V6h0.5   C22.7763672,6,23,5.7763672,23,5.5S22.7763672,5,22.5,5z" fill="url(#SVGID_1_)"/>
</g>
<g/>
<g/>
<g/>
<g/>
<g/>
<g/>
<g/>
<g/>
<g/>
<g/>
<g/>
<g/>
<g/>
<g/>
<g/>
</svg>