<?xml version="1.0" encoding="utf-8"?>
<!-- Generator: Adobe Illustrator 19.2.1, SVG Export Plug-In . SVG Version: 6.00 Build 0)  -->
<svg width="250px" version="1.1" id="Слой_1" xmlns="http://www.w3.org/2000/svg" xmlns:xlink="http://www.w3.org/1999/xlink" x="0px" y="0px"
	 viewBox="0 0 281.2 171.8" style="enable-background:new 0 0 281.2 171.8;" xml:space="preserve">
<g>
	<rect x="81.8" y="48.8" width="2.4" height="17.8"/>
	<rect x="81.8" y="106.9" width="2.4" height="16.1"/>
	<rect x="43.1" y="85.1" width="23.2" height="2.4"/>
	<rect x="100.1" y="85.1" width="23.8" height="2.4"/>
	<rect x="157.7" y="85.1" width="23" height="2.4"/>
	<rect x="139.4" y="48.8" width="2.4" height="17.8"/>
	<rect x="139.4" y="106.9" width="2.4" height="16.1"/>
	<rect x="215.7" y="85.1" width="22.5" height="2.4"/>
	<polygon points="75.3,29.5 90.7,29.5 90.7,42.4 94.3,42.4 94.3,14.2 90.7,14.2 90.7,26.4 75.3,26.4 75.3,14.2 71.8,14.2 71.8,42.4 
		75.3,42.4 	"/>
	<path d="M83.5,74.8c4,0,7.3,2.4,8.2,6.1h3.6c-0.9-5.6-5.6-9.4-11.7-9.4c-7.7,0-12.7,5.7-12.7,14.6c0,8.9,4.9,14.6,12.7,14.6
		c6.2,0,10.4-3.1,11.7-8.7h-3.6c-1,3.4-4,5.4-8.1,5.4c-5.6,0-9.1-4.4-9.1-11.3C74.4,79.3,78,74.8,83.5,74.8z"/>
	<polygon points="90.7,141.6 75.3,141.6 75.3,129.4 71.8,129.4 71.8,157.6 75.3,157.6 75.3,144.7 90.7,144.7 90.7,157.6 94.3,157.6 
		94.3,129.4 90.7,129.4 	"/>
	<polygon points="33.1,84 17.7,84 17.7,71.8 14.2,71.8 14.2,100 17.7,100 17.7,87.1 33.1,87.1 33.1,100 36.7,100 36.7,71.8 
		33.1,71.8 	"/>
	<path d="M141.1,74.8c4,0,7.3,2.4,8.2,6.1h3.6c-0.9-5.6-5.6-9.4-11.7-9.4c-7.7,0-12.7,5.7-12.7,14.6c0,8.9,4.9,14.6,12.7,14.6
		c6.2,0,10.4-3.1,11.7-8.7h-3.6c-1,3.4-4,5.4-8.1,5.4c-5.6,0-9.1-4.4-9.1-11.3C132,79.3,135.6,74.8,141.1,74.8z"/>
	<path d="M198.2,71.5c-8,0-13,5.6-13,14.6c0,9,5,14.6,13,14.6s13-5.6,13-14.6C211.2,77.2,206.2,71.5,198.2,71.5z M198.2,97.4
		c-5.8,0-9.4-4.4-9.4-11.3c0-6.9,3.6-11.3,9.4-11.3s9.4,4.4,9.4,11.3C207.6,93.1,204,97.4,198.2,97.4z"/>
	<polygon points="132.9,29.5 148.3,29.5 148.3,42.4 151.9,42.4 151.9,14.2 148.3,14.2 148.3,26.4 132.9,26.4 132.9,14.2 129.4,14.2 
		129.4,42.4 132.9,42.4 	"/>
	<polygon points="148.3,141.6 132.9,141.6 132.9,129.4 129.4,129.4 129.4,157.6 132.9,157.6 132.9,144.7 148.3,144.7 148.3,157.6 
		151.9,157.6 151.9,129.4 148.3,129.4 	"/>
	<polygon points="263.5,71.8 263.5,84 248.1,84 248.1,71.8 244.6,71.8 244.6,100 248.1,100 248.1,87.1 263.5,87.1 263.5,100 
		267.1,100 267.1,71.8 	"/>
</g>
</svg>
